<?xml version="1.0" encoding="UTF-8" standalone="no"?>
<!-- Created with Inkscape (http://www.inkscape.org/) -->

<svg
   width="170mm"
   height="147mm"
   viewBox="0 0 170 147"
   version="1.1"
   id="svg1"
   inkscape:version="1.4.3 (0d15f75042, 2025-12-25)"
   sodipodi:docname="example.svg"
   xmlns:inkscape="http://www.inkscape.org/namespaces/inkscape"
   xmlns:sodipodi="http://sodipodi.sourceforge.net/DTD/sodipodi-0.dtd"
   xmlns="http://www.w3.org/2000/svg"
   xmlns:svg="http://www.w3.org/2000/svg">
  <sodipodi:namedview
     id="namedview1"
     pagecolor="#ffffff"
     bordercolor="#000000"
     borderopacity="0.25"
     inkscape:showpageshadow="2"
     inkscape:pageopacity="0.0"
     inkscape:pagecheckerboard="0"
     inkscape:deskcolor="#d1d1d1"
     inkscape:document-units="mm"
     showgrid="true"
     inkscape:zoom="1.1759363"
     inkscape:cx="378.42184"
     inkscape:cy="171.35281"
     inkscape:window-width="2048"
     inkscape:window-height="1204"
     inkscape:window-x="0"
     inkscape:window-y="0"
     inkscape:window-maximized="1"
     inkscape:current-layer="layer6">
    <inkscape:grid
       id="grid1"
       units="mm"
       originx="0"
       originy="-149.99999"
       spacingx="0.99999998"
       spacingy="1"
       empcolor="#0099e5"
       empopacity="0.30196078"
       color="#0099e5"
       opacity="0.14901961"
       empspacing="10"
       enabled="true"
       visible="true" />
  </sodipodi:namedview>
  <defs
     id="defs1">
    <marker
       style="overflow:visible"
       id="marker43"
       refX="0"
       refY="0"
       orient="auto-start-reverse"
       inkscape:stockid="Concave triangle arrow"
       markerWidth="1"
       markerHeight="1"
       viewBox="0 0 1 1"
       inkscape:isstock="true"
       inkscape:collect="always"
       preserveAspectRatio="xMidYMid">
      <path
         transform="scale(0.7)"
         d="M -2,-4 9,0 -2,4 c 2,-2.33 2,-5.66 0,-8 z"
         style="fill:context-stroke;fill-rule:evenodd;stroke:none"
         id="path43" />
    </marker>
    <marker
       style="overflow:visible"
       id="marker42"
       refX="0"
       refY="0"
       orient="auto-start-reverse"
       inkscape:stockid="Concave triangle arrow"
       markerWidth="1"
       markerHeight="1"
       viewBox="0 0 1 1"
       inkscape:isstock="true"
       inkscape:collect="always"
       preserveAspectRatio="xMidYMid">
      <path
         transform="scale(0.7)"
         d="M -2,-4 9,0 -2,4 c 2,-2.33 2,-5.66 0,-8 z"
         style="fill:context-stroke;fill-rule:evenodd;stroke:none"
         id="path42" />
    </marker>
    <inkscape:path-effect
       effect="bspline"
       id="path-effect38"
       is_visible="true"
       lpeversion="1.3"
       weight="33.333333"
       steps="2"
       helper_size="0"
       apply_no_weight="true"
       apply_with_weight="true"
       only_selected="false"
       uniform="false" />
    <inkscape:path-effect
       effect="bspline"
       id="path-effect31"
       is_visible="true"
       lpeversion="1.3"
       weight="33.333333"
       steps="2"
       helper_size="0"
       apply_no_weight="true"
       apply_with_weight="true"
       only_selected="false"
       uniform="false" />
    <inkscape:path-effect
       effect="bspline"
       id="path-effect25"
       is_visible="true"
       lpeversion="1.3"
       weight="33.333333"
       steps="2"
       helper_size="0"
       apply_no_weight="true"
       apply_with_weight="true"
       only_selected="false"
       uniform="false" />
    <marker
       style="overflow:visible"
       id="ConcaveTriangle"
       refX="0"
       refY="0"
       orient="auto-start-reverse"
       inkscape:stockid="Concave triangle arrow"
       markerWidth="1"
       markerHeight="1"
       viewBox="0 0 1 1"
       inkscape:isstock="true"
       inkscape:collect="always"
       preserveAspectRatio="xMidYMid">
      <path
         transform="scale(0.7)"
         d="M -2,-4 9,0 -2,4 c 2,-2.33 2,-5.66 0,-8 z"
         style="fill:context-stroke;fill-rule:evenodd;stroke:none"
         id="path7" />
    </marker>
    <inkscape:path-effect
       effect="bspline"
       id="path-effect19"
       is_visible="true"
       lpeversion="1.3"
       weight="33.333333"
       steps="2"
       helper_size="0"
       apply_no_weight="true"
       apply_with_weight="true"
       only_selected="false"
       uniform="false" />
    <inkscape:path-effect
       effect="bspline"
       id="path-effect78"
       is_visible="true"
       lpeversion="1.3"
       weight="33.333333"
       steps="2"
       helper_size="0"
       apply_no_weight="true"
       apply_with_weight="true"
       only_selected="false"
       uniform="false" />
    <inkscape:path-effect
       effect="bspline"
       id="path-effect77"
       is_visible="true"
       lpeversion="1.3"
       weight="33.333333"
       steps="2"
       helper_size="0"
       apply_no_weight="true"
       apply_with_weight="true"
       only_selected="false"
       uniform="false" />
  </defs>
  <g
     inkscape:groupmode="layer"
     id="layer6"
     inkscape:label="_instructions"
     style="opacity:0.386054"
     transform="translate(0,-150)">
    <path
       style="fill:none;stroke:#0055d4;stroke-width:0.25;stroke-dasharray:none"
       d="m -10.022777,201.04778 c 2.288598,1.5e-4 2.749624,3.16178 3.125934,5.74318 0.766439,5.25762 0.677027,62.1583 -0.13017,66.43163 -0.484474,2.56481 -1.705815,4.89335 -2.995764,4.89355"
       id="path45"
       sodipodi:nodetypes="cssc" />
    <text
       xml:space="preserve"
       style="font-style:normal;font-variant:normal;font-weight:normal;font-stretch:normal;font-size:2.82222px;line-height:1;font-family:Sans;-inkscape-font-specification:Sans;writing-mode:lr-tb;direction:ltr;fill:#63b600;fill-opacity:1;stroke:#63b600;stroke-width:0.25;stroke-linecap:round;stroke-dasharray:none;stroke-opacity:1"
       x="45.667549"
       y="184.68027"
       id="text18"><tspan
         sodipodi:role="line"
         style="font-size:2.82222px;line-height:1;fill:#63b600;fill-opacity:1;stroke:none;stroke-width:0.25"
         x="45.667549"
         y="184.68027"
         id="tspan19">Mug outer profile</tspan><tspan
         sodipodi:role="line"
         style="font-size:2.82222px;line-height:1;fill:#63b600;fill-opacity:1;stroke:none;stroke-width:0.25"
         x="45.667549"
         y="187.50249"
         id="tspan77">is flat on the top.</tspan></text>
    <path
       style="fill:none;fill-opacity:1;stroke:#63b600;stroke-width:0.25;stroke-linecap:round;stroke-dasharray:none;stroke-opacity:1;-inkscape-stroke:none;marker-end:url(#ConcaveTriangle)"
       d="m 44.999999,183.99999 c -1.999999,0.66667 -4.000001,1.33333 -5.999998,2"
       id="path19"
       inkscape:path-effect="#path-effect19"
       inkscape:original-d="m 44.999999,183.99999 c -1.999998,0.66667 -3.999999,1.33334 -5.999998,2" />
    <text
       xml:space="preserve"
       style="font-style:normal;font-variant:normal;font-weight:normal;font-stretch:normal;font-size:2.82222px;line-height:1;font-family:Sans;-inkscape-font-specification:Sans;writing-mode:lr-tb;direction:ltr;fill:#de2c00;fill-opacity:1;stroke:#63b600;stroke-width:0.25;stroke-linecap:round;stroke-dasharray:none;stroke-opacity:1"
       x="1.0539941"
       y="191.15111"
       id="text21"><tspan
         sodipodi:role="line"
         id="tspan20"
         style="font-size:2.82222px;line-height:1;fill:#de2c00;fill-opacity:1;stroke:none;stroke-width:0.25"
         x="1.0539941"
         y="191.15111">Mug inner profile</tspan><tspan
         sodipodi:role="line"
         style="font-size:2.82222px;line-height:1;fill:#de2c00;fill-opacity:1;stroke:none;stroke-width:0.25"
         x="1.0539941"
         y="193.97333"
         id="tspan23">also defines the</tspan><tspan
         sodipodi:role="line"
         style="font-size:2.82222px;line-height:1;fill:#de2c00;fill-opacity:1;stroke:none;stroke-width:0.25"
         x="1.0539941"
         y="196.79555"
         id="tspan78">inside of the lip. </tspan></text>
    <path
       style="fill:none;fill-opacity:1;stroke:#de2c00;stroke-width:0.25;stroke-linecap:round;stroke-dasharray:none;stroke-opacity:1;-inkscape-stroke:none;marker-end:url(#ConcaveTriangle)"
       d="m 44.999999,183.99999 c -1.999999,0.66667 -4.000001,1.33333 -5.999998,2"
       id="path24"
       inkscape:path-effect="#path-effect25"
       inkscape:original-d="m 44.999999,183.99999 c -1.999998,0.66667 -3.999999,1.33334 -5.999998,2"
       transform="rotate(-166.37063,36.239007,188.3585)" />
    <text
       xml:space="preserve"
       style="font-style:normal;font-variant:normal;font-weight:normal;font-stretch:normal;font-size:2.82222px;line-height:1;font-family:Sans;-inkscape-font-specification:Sans;writing-mode:lr-tb;direction:ltr;fill:#de2c00;fill-opacity:1;stroke:#63b600;stroke-width:0.25;stroke-linecap:round;stroke-dasharray:none;stroke-opacity:1"
       x="2.7574656"
       y="157.48111"
       id="text28"><tspan
         sodipodi:role="line"
         id="tspan26"
         style="font-size:2.82222px;line-height:1;fill:#de2c00;fill-opacity:1;stroke:none;stroke-width:0.25"
         x="2.7574656"
         y="157.48111">Top of mug inner profile</tspan><tspan
         sodipodi:role="line"
         style="font-size:2.82222px;line-height:1;fill:#de2c00;fill-opacity:1;stroke:none;stroke-width:0.25"
         x="2.7574656"
         y="160.30333"
         id="tspan28">defines the diameter</tspan><tspan
         sodipodi:role="line"
         style="font-size:2.82222px;line-height:1;fill:#de2c00;fill-opacity:1;stroke:none;stroke-width:0.25"
         x="2.7574656"
         y="163.12555"
         id="tspan29">and height of the pouring hole.</tspan><tspan
         sodipodi:role="line"
         style="font-size:2.82222px;line-height:1;fill:#de2c00;fill-opacity:1;stroke:none;stroke-width:0.25"
         x="2.7574656"
         y="165.94777"
         id="tspan30">Mould top is this horizontal line.</tspan><tspan
         sodipodi:role="line"
         style="font-size:2.82222px;line-height:1;fill:#de2c00;fill-opacity:1;stroke:none;stroke-width:0.25"
         x="2.7574656"
         y="168.76999"
         id="tspan100">It should rise above the lip</tspan><tspan
         sodipodi:role="line"
         style="font-size:2.82222px;line-height:1;fill:#de2c00;fill-opacity:1;stroke:none;stroke-width:0.25"
         x="2.7574656"
         y="171.59221"
         id="tspan101">by at least 5mm. </tspan></text>
    <path
       style="fill:none;fill-opacity:1;stroke:#de2c00;stroke-width:0.25;stroke-linecap:round;stroke-dasharray:none;stroke-opacity:1;-inkscape-stroke:none;marker-end:url(#ConcaveTriangle)"
       d="m 42.411292,185.75245 c -1.137096,0.0825 -2.274195,0.16503 -3.411291,0.24754"
       id="path30"
       inkscape:path-effect="#path-effect31"
       inkscape:original-d="m 42.411292,185.75245 c -1.137097,0.0825 -2.274195,0.16503 -3.411291,0.24754"
       transform="rotate(-85.849566,26.309328,189.82535)"
       sodipodi:nodetypes="cc" />
    <text
       xml:space="preserve"
       style="font-style:normal;font-variant:normal;font-weight:normal;font-stretch:normal;font-size:2.82222px;line-height:1;font-family:Sans;-inkscape-font-specification:Sans;writing-mode:lr-tb;direction:ltr;fill:#0055d4;fill-opacity:1;stroke:#63b600;stroke-width:0.25;stroke-linecap:round;stroke-dasharray:none;stroke-opacity:1"
       x="8.9416676"
       y="209"
       id="text33"><tspan
         sodipodi:role="line"
         style="font-size:2.82222px;line-height:1;fill:#0055d4;fill-opacity:1;stroke:none;stroke-width:0.25"
         x="8.9416676"
         y="209"
         id="tspan33">Handle side rail</tspan><tspan
         sodipodi:role="line"
         style="font-size:2.82222px;line-height:1;fill:#0055d4;fill-opacity:1;stroke:none;stroke-width:0.25"
         x="8.9416676"
         y="211.82222"
         id="tspan35">defines half</tspan><tspan
         sodipodi:role="line"
         style="font-size:2.82222px;line-height:1;fill:#0055d4;fill-opacity:1;stroke:none;stroke-width:0.25"
         x="8.9416676"
         y="214.64444"
         id="tspan36">of the lateral</tspan><tspan
         sodipodi:role="line"
         style="font-size:2.82222px;line-height:1;fill:#0055d4;fill-opacity:1;stroke:none;stroke-width:0.25"
         x="8.9416676"
         y="217.46666"
         id="tspan37">handle shape.</tspan></text>
    <path
       style="fill:none;fill-opacity:1;stroke:#0055d4;stroke-width:0.25;stroke-linecap:round;stroke-dasharray:0.25, 1;stroke-dashoffset:0;stroke-opacity:1;-inkscape-stroke:none;marker-start:url(#marker43);marker-end:url(#marker42)"
       d="M 41.650604,188.44424 C 35.759594,164.14822 29.868581,139.85219 23.977581,115.55621"
       id="path37"
       inkscape:path-effect="#path-effect38"
       inkscape:original-d="M 41.650604,188.44424 C 35.759595,164.14822 29.868582,139.85219 23.977581,115.55621"
       transform="rotate(-166.37063,13.845697,198.64167)"
       sodipodi:nodetypes="cc" />
    <text
       xml:space="preserve"
       style="font-style:normal;font-variant:normal;font-weight:normal;font-stretch:normal;font-size:2.82222px;line-height:1;font-family:Sans;-inkscape-font-specification:Sans;text-align:end;writing-mode:lr-tb;direction:ltr;text-anchor:end;fill:#0055d4;fill-opacity:1;stroke:#63b600;stroke-width:0.25;stroke-linecap:round;stroke-dasharray:none;stroke-opacity:1"
       x="-2.8497932"
       y="196.14423"
       id="text48"><tspan
         sodipodi:role="line"
         style="font-size:2.82222px;line-height:1;fill:#0055d4;fill-opacity:1;stroke:none;stroke-width:0.25"
         x="-2.849793"
         y="196.14423"
         id="tspan51">Imagine a mirrored</tspan><tspan
         sodipodi:role="line"
         style="font-size:2.82222px;line-height:1;fill:#0055d4;fill-opacity:1;stroke:none;stroke-width:0.25"
         x="-2.8497941"
         y="198.96645"
         id="tspan52">rail over here.</tspan></text>
    <text
       xml:space="preserve"
       style="font-style:normal;font-variant:normal;font-weight:normal;font-stretch:normal;font-size:2.82222px;line-height:1;font-family:Sans;-inkscape-font-specification:Sans;text-align:end;writing-mode:lr-tb;direction:ltr;text-anchor:end;fill:#0055d4;fill-opacity:1;stroke:#63b600;stroke-width:0.25;stroke-linecap:round;stroke-dasharray:none;stroke-opacity:1"
       x="-18.368361"
       y="240.01924"
       id="text54"><tspan
         sodipodi:role="line"
         style="font-size:2.82222px;line-height:1;fill:#0055d4;fill-opacity:1;stroke:none;stroke-width:0.25"
         x="-18.368361"
         y="240.01924"
         id="tspan54">The Y dimension</tspan><tspan
         sodipodi:role="line"
         style="font-size:2.82222px;line-height:1;fill:#0055d4;fill-opacity:1;stroke:none;stroke-width:0.25"
         x="-18.368361"
         y="242.84146"
         id="tspan55">doesn't matter —</tspan><tspan
         sodipodi:role="line"
         style="font-size:2.82222px;line-height:1;fill:#0055d4;fill-opacity:1;stroke:none;stroke-width:0.25"
         x="-18.368361"
         y="245.66368"
         id="tspan56">it gets stretched</tspan><tspan
         sodipodi:role="line"
         style="font-size:2.82222px;line-height:1;fill:#0055d4;fill-opacity:1;stroke:none;stroke-width:0.25"
         x="-18.368361"
         y="248.4859"
         id="tspan57">to the handle length.</tspan></text>
    <text
       xml:space="preserve"
       style="font-style:normal;font-variant:normal;font-weight:normal;font-stretch:normal;font-size:2.82222px;line-height:1;font-family:Sans;-inkscape-font-specification:Sans;writing-mode:lr-tb;direction:ltr;fill:#cc00ff;fill-opacity:1;stroke:#63b600;stroke-width:0.25;stroke-linecap:round;stroke-dasharray:none;stroke-opacity:1"
       x="106.70705"
       y="195.14423"
       id="text61"><tspan
         sodipodi:role="line"
         style="font-size:2.82222px;line-height:1;fill:#cc00ff;fill-opacity:1;stroke:none;stroke-width:0.25"
         x="106.70705"
         y="195.14423"
         id="tspan61">Handle profile (violet)</tspan><tspan
         sodipodi:role="line"
         style="font-size:2.82222px;line-height:1;fill:#cc00ff;fill-opacity:1;stroke:none;stroke-width:0.25"
         x="106.70705"
         y="197.96645"
         id="tspan64">defines the cross-section</tspan><tspan
         sodipodi:role="line"
         style="font-size:2.82222px;line-height:1;fill:#cc00ff;fill-opacity:1;stroke:none;stroke-width:0.25"
         x="106.70705"
         y="200.78867"
         id="tspan65">of the handle — will be resized</tspan><tspan
         sodipodi:role="line"
         style="font-size:2.82222px;line-height:1;fill:#cc00ff;fill-opacity:1;stroke:none;stroke-width:0.25"
         x="106.70705"
         y="203.61089"
         id="tspan66">to fit the handle rails</tspan></text>
    <text
       xml:space="preserve"
       style="font-style:normal;font-variant:normal;font-weight:normal;font-stretch:normal;font-size:2.82222px;line-height:1;font-family:Sans;-inkscape-font-specification:Sans;writing-mode:lr-tb;direction:ltr;fill:#cc00ff;fill-opacity:1;stroke:#63b600;stroke-width:0.25;stroke-linecap:round;stroke-dasharray:none;stroke-opacity:1"
       x="92.511703"
       y="193.14423"
       id="text70"><tspan
         sodipodi:role="line"
         style="font-size:2.82222px;line-height:1;fill:#cc00ff;fill-opacity:1;stroke:none;stroke-width:0.25"
         x="92.511703"
         y="193.14423"
         id="tspan70">inside</tspan></text>
    <text
       xml:space="preserve"
       style="font-style:normal;font-variant:normal;font-weight:normal;font-stretch:normal;font-size:2.82222px;line-height:1;font-family:Sans;-inkscape-font-specification:Sans;writing-mode:lr-tb;direction:ltr;fill:#cc00ff;fill-opacity:1;stroke:#63b600;stroke-width:0.25;stroke-linecap:round;stroke-dasharray:none;stroke-opacity:1"
       x="91.453369"
       y="206.37344"
       id="text73"><tspan
         sodipodi:role="line"
         style="font-size:2.82222px;line-height:1;fill:#cc00ff;fill-opacity:1;stroke:none;stroke-width:0.25"
         x="91.453369"
         y="206.37344"
         id="tspan73">outside</tspan></text>
    <text
       xml:space="preserve"
       style="font-style:normal;font-variant:normal;font-weight:normal;font-stretch:normal;font-size:2.82222px;line-height:1;font-family:Sans;-inkscape-font-specification:Sans;writing-mode:lr-tb;direction:ltr;fill:#f2a300;fill-opacity:1;stroke:#63b600;stroke-width:0.25;stroke-linecap:round;stroke-dasharray:none;stroke-opacity:1"
       x="47.941666"
       y="279.67505"
       id="text75"><tspan
         sodipodi:role="line"
         style="font-size:2.82222px;line-height:1;fill:#f2a300;fill-opacity:1;stroke:none;stroke-width:0.25"
         x="47.941666"
         y="279.67505"
         id="tspan75">Handle rail endpoints must</tspan><tspan
         sodipodi:role="line"
         style="font-size:2.82222px;line-height:1;fill:#f2a300;fill-opacity:1;stroke:none;stroke-width:0.25"
         x="47.941666"
         y="282.49728"
         id="tspan79">touch or slightly protrude into</tspan><tspan
         sodipodi:role="line"
         style="font-size:2.82222px;line-height:1;fill:#f2a300;fill-opacity:1;stroke:none;stroke-width:0.25"
         x="47.941666"
         y="285.31949"
         id="tspan80">the body outer profile.</tspan><tspan
         sodipodi:role="line"
         style="font-size:2.82222px;line-height:1;fill:#f2a300;fill-opacity:1;stroke:none;stroke-width:0.25"
         x="47.941666"
         y="288.14172"
         id="tspan76" /></text>
    <text
       xml:space="preserve"
       style="font-style:normal;font-variant:normal;font-weight:normal;font-stretch:normal;font-size:2.82222px;line-height:1;font-family:Sans;-inkscape-font-specification:Sans;writing-mode:lr-tb;direction:ltr;fill:#f2a300;fill-opacity:1;stroke:#63b600;stroke-width:0.25;stroke-linecap:round;stroke-dasharray:none;stroke-opacity:1"
       x="87.072792"
       y="223.3156"
       id="text84"><tspan
         sodipodi:role="line"
         style="font-size:2.82222px;line-height:1;fill:#f2a300;fill-opacity:1;stroke:none;stroke-width:0.25"
         x="87.072792"
         y="223.3156"
         id="tspan84">I prefer creating handle rails</tspan><tspan
         sodipodi:role="line"
         style="font-size:2.82222px;line-height:1;fill:#f2a300;fill-opacity:1;stroke:none;stroke-width:0.25"
         x="87.072792"
         y="226.13782"
         id="tspan87">in B-spline mode because</tspan><tspan
         sodipodi:role="line"
         style="font-size:2.82222px;line-height:1;fill:#f2a300;fill-opacity:1;stroke:none;stroke-width:0.25"
         x="87.072792"
         y="228.96004"
         id="tspan88">the curves are much more natural.</tspan></text>
    <text
       xml:space="preserve"
       style="font-style:normal;font-variant:normal;font-weight:normal;font-stretch:normal;font-size:2.82222px;line-height:1;font-family:Sans;-inkscape-font-specification:Sans;writing-mode:lr-tb;direction:ltr;fill:#63b600;fill-opacity:1;stroke:#63b600;stroke-width:0.25;stroke-linecap:round;stroke-dasharray:none;stroke-opacity:1"
       x="3"
       y="302"
       id="text90"><tspan
         sodipodi:role="line"
         style="font-size:2.82222px;line-height:1;fill:#63b600;fill-opacity:1;stroke:none;stroke-width:0.25"
         x="3"
         y="302"
         id="tspan90">If the foot is concave like this,</tspan><tspan
         sodipodi:role="line"
         style="font-size:2.82222px;line-height:1;fill:#63b600;fill-opacity:1;stroke:none;stroke-width:0.25"
         x="3"
         y="304.82224"
         id="tspan91">a three-part mould will be generated.</tspan></text>
    <text
       xml:space="preserve"
       style="font-style:normal;font-variant:normal;font-weight:normal;font-stretch:normal;font-size:2.82222px;line-height:1;font-family:Sans;-inkscape-font-specification:Sans;writing-mode:lr-tb;direction:ltr;fill:#000000;fill-opacity:1;stroke:#63b600;stroke-width:0.25;stroke-linecap:round;stroke-dasharray:none;stroke-opacity:1"
       x="104.3321"
       y="266.6734"
       id="text94"><tspan
         sodipodi:role="line"
         style="font-size:2.82222px;line-height:1;fill:#000000;fill-opacity:1;stroke:none;stroke-width:0.25"
         x="104.3321"
         y="266.6734"
         id="tspan94">All text and strokes in the maker's mark</tspan><tspan
         sodipodi:role="line"
         style="font-size:2.82222px;line-height:1;fill:#000000;fill-opacity:1;stroke:none;stroke-width:0.25"
         x="104.3321"
         y="269.49564"
         id="tspan96">should be converted to paths.</tspan><tspan
         sodipodi:role="line"
         style="font-size:2.82222px;line-height:1;fill:#000000;fill-opacity:1;stroke:none;stroke-width:0.25"
         x="104.3321"
         y="272.31784"
         id="tspan97">Make sure you remove any invisible shapes</tspan><tspan
         sodipodi:role="line"
         style="font-size:2.82222px;line-height:1;fill:#000000;fill-opacity:1;stroke:none;stroke-width:0.25"
         x="104.3321"
         y="275.14008"
         id="tspan98">like the one I used to curve the text!</tspan><tspan
         sodipodi:role="line"
         style="font-size:2.82222px;line-height:1;fill:#000000;fill-opacity:1;stroke:none;stroke-width:0.25"
         x="104.3321"
         y="277.96228"
         id="tspan99">(Press Ctrl+5 to see invisible shapes)</tspan></text>
  </g>
  <g
     inkscape:label="mug body"
     inkscape:groupmode="layer"
     id="layer1"
     transform="translate(0,-150)">
    <path
       style="fill:none;stroke:#63b600;stroke-width:0.25;stroke-dasharray:none;stroke-opacity:1;-inkscape-stroke:none"
       d="M 0,293.99999 H 28.000001 L 30,297 h 4 l 2.000002,-3.66434 c 7.999999,-10.99304 13.699059,-24.25554 13.999999,-35.6137 0.53843,-20.32156 -3.901106,-46.58214 -9.999999,-66.98789 -0.582867,-1.95016 -2.000001,-3.66434 -3.000001,-3.66434 H 0 Z"
       id="path1"
       sodipodi:nodetypes="cccccssscc" />
    <path
       style="fill:none;stroke:#de2c00;stroke-width:0.25;stroke-dasharray:none;stroke-opacity:1;-inkscape-stroke:none"
       d="M 0,289.99999 H 33.000001 C 37.270295,284.35271 43.129947,273.59498 45.262655,262.5221 47.958166,248.52718 42.693261,215.29095 36.000002,190.73407 35.351018,188.35302 36,187.03634 37,187.06973 v -7.06974 H 0 Z"
       id="path2"
       sodipodi:nodetypes="ccsscccc" />
  </g>
  <g
     inkscape:groupmode="layer"
     id="layer2"
     inkscape:label="handle rails"
     transform="translate(0,-150)">
    <path
       style="fill:none;stroke:#f2a300;stroke-width:0.25;stroke-dasharray:none;stroke-opacity:1"
       d="m 46.643932,219.14255 c -0.855384,-4.261 -1.710747,-8.52189 0.807438,-11.95732 2.518184,-3.43544 8.409706,-6.04512 13.291098,-6.02888 4.881393,0.0162 8.752305,2.65829 11.793916,8.61862 3.041612,5.96033 5.253562,15.23823 5.9602,23.84077 0.706638,8.60255 -0.09212,16.5287 -2.293658,22.42912 -2.201537,5.90042 -5.805602,9.77443 -9.538939,11.74226 -3.733337,1.96784 -7.595587,2.02928 -10.449934,0.72398 -2.854347,-1.30531 -4.700687,-3.97735 -5.561388,-6.43855 -0.860701,-2.4612 -0.73575,-4.71153 -0.610798,-6.96188"
       id="path77"
       inkscape:path-effect="#path-effect77"
       inkscape:original-d="m 46.643932,219.14255 c -0.855383,-4.261 -1.710746,-8.52189 -2.566147,-12.78297 5.891769,-2.60979 11.78329,-5.21947 17.674932,-7.8292 3.871144,2.64221 7.742057,5.28426 11.613198,7.92647 2.212081,9.27845 4.42403,18.55635 6.636114,27.83481 -0.798808,7.92663 -1.597567,15.85278 -2.396373,23.7794 -3.604269,3.87422 -7.208329,7.74823 -10.812599,11.62245 -3.862408,0.0614 -7.724657,0.12289 -11.586997,0.18434 -1.846353,-2.67206 -3.692695,-5.3441 -5.539048,-8.01616 0.124952,-2.25034 0.249903,-4.50067 0.374855,-6.75102"
       sodipodi:nodetypes="cccccccccc" />
    <path
       style="fill:none;stroke:#f2a300;stroke-width:0.25;stroke-dasharray:none;stroke-opacity:1"
       d="m 41.252063,195.08981 c 0.42031,1.58491 0.84062,3.16982 2.936354,3.09805 2.095735,-0.0718 5.866745,-1.80014 9.991573,-2.72403 4.124828,-0.92389 8.60313,-1.04326 12.539448,0.50718 3.936318,1.55044 7.330177,4.77049 10.283141,9.96098 2.952964,5.19049 5.464724,12.35093 6.843522,20.23249 1.378798,7.88157 1.624575,16.48376 0.549254,23.51932 -1.075321,7.03557 -3.471649,12.50411 -6.820472,16.83604 -3.348824,4.33194 -7.649919,7.52704 -11.828251,8.84811 -4.178333,1.32108 -8.233651,0.76807 -11.351586,0.0529 -3.117936,-0.71521 -5.298294,-1.59257 -6.616683,-1.44075 -1.318388,0.15182 -1.774695,1.33284 -2.23101,2.51388"
       id="path78"
       inkscape:path-effect="#path-effect78"
       inkscape:original-d="m 41.252063,195.08981 c 0.420309,1.58491 0.840618,3.16982 1.260927,4.75472 3.771162,-1.72844 7.542173,-3.45681 11.313261,-5.18522 4.478567,-0.11937 8.956869,-0.23874 13.435438,-0.35811 3.394066,3.22025 6.787927,6.4403 10.181993,9.66055 2.51186,7.16073 5.02362,14.32117 7.53543,21.48175 0.245787,8.60255 0.491564,17.20474 0.737346,25.80711 -2.396421,5.46876 -4.792747,10.9373 -7.18912,16.40593 -4.301271,3.19525 -8.602369,6.39035 -12.903555,9.58551 -4.055483,-0.55303 -8.110804,-1.10601 -12.166205,-1.65904 -2.180468,-0.87741 -4.360824,-1.75478 -6.541284,-2.63218 -0.456321,1.18105 -0.912629,2.36207 -1.368941,3.54311"
       sodipodi:nodetypes="cccccccccccc" />
  </g>
  <g
     inkscape:groupmode="layer"
     id="layer3"
     inkscape:label="side rails"
     transform="translate(0,-150)">
    <path
       style="fill:none;stroke:#0055d4;stroke-width:0.25;stroke-dasharray:none"
       d="m 10.022777,201.04778 c -2.2885985,1.5e-4 -2.7496242,3.16178 -3.1259342,5.74318 -0.7664394,5.25762 -0.6770274,62.1583 0.13017,66.43163 0.4844737,2.56481 1.7058151,4.89335 2.9957642,4.89355"
       id="path6"
       sodipodi:nodetypes="cssc" />
  </g>
  <g
     inkscape:groupmode="layer"
     id="layer4"
     inkscape:label="handle profile"
     transform="translate(0,-150)">
    <path
       id="path76"
       style="fill:none;stroke:#cc00ff;stroke-width:0.25;stroke-dasharray:none"
       d="m 102.875,198.09422 c 1e-5,-2.4688 -2.73038,-2.96923 -6.098484,-2.96923 -3.368104,0 -6.09849,0.50043 -6.098486,2.96923 4e-6,2.46878 2.730388,4.47013 6.098486,4.47013 3.368094,0 6.098484,-2.00135 6.098484,-4.47013 z"
       sodipodi:nodetypes="sssss" />
  </g>
  <g
     inkscape:groupmode="layer"
     id="layer5"
     inkscape:label="mark"
     transform="translate(0,-150)">
    <g
       id="text39"
       style="font-weight:bold;font-stretch:semi-condensed;font-size:5.64444px;line-height:0.8;font-family:'DejaVu Sans';-inkscape-font-specification:'DejaVu Sans Bold Semi-Condensed';text-align:center;text-anchor:middle;fill:none;stroke:#0055d4;stroke-linecap:round"
       aria-label="Comic&#10;Sans&#10;Guy" />
    <path
       style="baseline-shift:baseline;display:inline;overflow:visible;opacity:1;vector-effect:none;fill:none;fill-rule:evenodd;stroke:#666666;stroke-width:0.25;stroke-linecap:round;stroke-dasharray:none;enable-background:accumulate;stop-color:#000000;stop-opacity:1"
       d="m 115.1909,248.41929 c -1.73886,0.14116 -3.40905,0.93712 -4.56152,2.42588 -1.85008,2.38992 -1.66326,6.04898 0.85575,7.9436 1.97796,1.48767 4.98797,1.31612 6.51487,-0.78878 1.16758,-1.60957 1.01017,-4.04466 -0.72553,-5.24613 -1.28491,-0.88942 -3.21217,-0.74618 -4.12993,0.666 -0.65265,1.00424 -0.52555,2.50274 0.61018,3.17744 0.38404,0.22814 0.83619,0.30994 1.27247,0.23069 0.43628,-0.0792 0.87375,-0.3492 1.10875,-0.80367 0.14935,-0.28881 0.19263,-0.60957 0.11906,-0.93016 -0.0735,-0.32059 -0.305,-0.65851 -0.67343,-0.80739 -0.21838,-0.0882 -0.43309,-0.10172 -0.66599,-0.0297 -0.23293,0.072 -0.50686,0.29557 -0.5767,0.61018 -0.0404,0.18192 -0.0251,0.30379 0.052,0.47253 0.0387,0.0844 0.0992,0.18135 0.21579,0.26416 0.0892,0.0633 0.21948,0.0773 0.33857,0.0855 -0.0427,0.019 -0.0573,0.0682 -0.11163,0.0781 -0.16763,0.0305 -0.37968,-0.008 -0.52832,-0.0968 -0.54338,-0.3228 -0.61201,-1.12217 -0.26045,-1.66312 0.55113,-0.84804 1.78873,-0.94072 2.61563,-0.36835 1.19183,0.82499 1.30696,2.57263 0.46879,3.72809 -1.14344,1.5763 -3.46991,1.70654 -4.99685,0.55811 -2.00224,-1.50595 -2.15397,-4.48047 -0.6511,-6.42187 1.91222,-2.4702 5.61166,-2.64157 8.01056,-0.74041 2.98053,2.36212 3.17295,6.85605 0.82971,9.75558 a 0.53815583,0.53815583 0 0 0 0.0781,0.75528 0.53815583,0.53815583 0 0 0 0.75528,-0.0781 c 2.70269,-3.34426 2.48668,-8.51927 -0.9934,-11.27731 -1.42272,-1.12752 -3.23195,-1.64055 -4.97081,-1.49943 z m -0.27161,6.22838 c 0.0962,-0.0114 0.23045,0.0236 0.31255,0.0819 0.0171,0.0133 0.0171,0.021 0.0297,0.0335 a 0.53815583,0.53815583 0 0 0 -0.59902,0 c 0.0171,-0.0152 0.0326,-0.029 0.0446,-0.0371 0.0341,-0.0234 0.0535,-0.0318 0.0745,-0.041 0.01,-0.004 0.0208,-0.01 0.0371,-0.0152 0.0171,-0.006 0.10153,-0.0225 0.10039,-0.0223 z m -0.27533,0.1303 a 0.53815583,0.53815583 0 0 0 0,0.74414 c 10e-4,0.001 -0.0899,-0.1202 -0.0893,-0.11906 6.1e-4,0.001 -0.0596,-0.17221 -0.0594,-0.17107 1.7e-4,0.001 0.004,-0.17964 0.004,-0.17849 -2.1e-4,10e-4 0.0451,-0.13506 0.0446,-0.13392 -5.5e-4,0.001 0.0352,-0.0634 0.052,-0.0855 0.0171,-0.0221 0.0345,-0.0421 0.0484,-0.0558 z"
       id="path91" />
    <path
       style="font-weight:bold;font-size:2.82223px;line-height:1;font-family:Sans;-inkscape-font-specification:'Sans Bold';fill:none;stroke:#666666;stroke-width:0.25;stroke-linecap:round;stroke-dasharray:none"
       d="m 103.82918,256.02043 q -0.28494,-0.15868 -0.44359,-0.39229 -0.16145,-0.23595 -0.18223,-0.52922 -0.0358,-0.50539 0.25709,-0.79194 0.29289,-0.28654 0.8873,-0.32862 l 1.78587,-0.12649 0.0668,0.94269 -1.52925,0.10821 q -0.0342,-2.1e-4 -0.0709,0.002 -0.0368,-2e-5 -0.10493,0.006 -0.31161,0.0221 -0.4439,0.12363 -0.13491,0.10172 -0.12046,0.30592 0.0189,0.26708 0.24926,0.39816 0.23016,0.12839 0.64689,0.1042 l 1.44021,-0.10192 0.0667,0.94268 -1.52924,0.1084 q -0.48706,0.0345 -0.61991,0.1282 -0.13546,0.0937 -0.12026,0.30853 0.0191,0.26973 0.25206,0.4006 0.23035,0.13106 0.64146,0.10191 l 1.44283,-0.1021 0.0668,0.94267 -2.93281,0.20769 -0.0667,-0.9427 0.42945,-0.0305 q -0.26101,-0.15526 -0.40246,-0.36888 -0.14163,-0.21631 -0.16074,-0.48602 -0.0215,-0.30376 0.10862,-0.5472 0.13013,-0.24344 0.38608,-0.38262 z m 1.97416,-4.7832 q -0.11329,0.27133 -0.0789,0.44784 0.0354,0.17412 0.21467,0.24894 0.16472,0.0688 0.30472,-7.8e-4 0.13859,-0.073 0.22051,-0.26923 0.10216,-0.24465 -0.002,-0.48462 -0.10704,-0.241 -0.37109,-0.35124 l -0.0993,-0.0415 z m 0.22625,-1.46163 1.54795,0.64634 -0.36515,0.8745 -0.40212,-0.16783 q 0.17426,0.27759 0.19708,0.54314 0.0204,0.26457 -0.11009,0.57706 -0.176,0.4215 -0.53091,0.58338 -0.35633,0.15849 -0.74877,-0.006 -0.47722,-0.19927 -0.56354,-0.61935 -0.0853,-0.42252 0.20803,-1.12502 l 0.21342,-0.51115 -0.0678,-0.0284 q -0.2059,-0.0859 -0.36815,0.037 -0.16467,0.12192 -0.3083,0.46584 -0.11631,0.27858 -0.16074,0.54166 -0.0444,0.2631 -0.019,0.51553 l -0.66122,-0.2759 q 0.0485,-0.30691 0.13192,-0.60207 0.081,-0.29619 0.19832,-0.57719 0.30648,-0.73401 0.73271,-0.93723 0.42482,-0.20667 1.07646,0.0653 z m 1.63554,-3.30148 -1.12726,-1.10006 0.66005,-0.67637 2.92337,2.85288 -0.66006,0.67634 -0.30435,-0.29702 q 0.0503,0.32055 -0.0265,0.5721 -0.0768,0.25155 -0.29127,0.47137 -0.37951,0.3889 -0.93149,0.33809 -0.55385,-0.0526 -1.04045,-0.52753 -0.4866,-0.47485 -0.55087,-1.02542 -0.0661,-0.55239 0.31338,-0.94129 0.21268,-0.21795 0.46416,-0.29899 0.25144,-0.0848 0.57123,-0.044 z m 0.92942,1.77266 q 0.21084,-0.21606 0.16306,-0.4828 -0.0459,-0.26862 -0.34657,-0.56197 -0.30061,-0.29334 -0.57026,-0.33276 -0.26782,-0.0413 -0.47867,0.17488 -0.20902,0.21418 -0.16305,0.48278 0.0478,0.26675 0.34841,0.5601 0.30061,0.29335 0.56842,0.33463 0.26967,0.0394 0.47869,-0.17469 z m 4.38356,-3.75844 0.10896,0.2446 -2.00716,0.89398 q 0.16573,0.28826 0.42009,0.35602 0.25433,0.0678 0.59006,-0.0817 0.27097,-0.12078 0.51869,-0.32587 0.24906,-0.20863 0.47619,-0.5052 l 0.29477,0.66185 q -0.25326,0.25075 -0.53219,0.44396 -0.27784,0.1956 -0.58239,0.33123 -0.72902,0.32471 -1.29876,0.13583 -0.56842,-0.19227 -0.86642,-0.86132 -0.29264,-0.65706 -0.0646,-1.20979 0.23037,-0.55378 0.9258,-0.86353 0.63308,-0.28197 1.18181,-0.0695 0.55111,0.21145 0.83522,0.84933 z m -1.00958,0.10763 q -0.10897,-0.2446 -0.31905,-0.3292 -0.20879,-0.088 -0.43898,0.0152 -0.2494,0.11106 -0.34225,0.322 -0.0939,0.2085 -0.0152,0.48937 z m 5.86027,0.54471 q 0.29857,0.0448 0.48701,-0.15012 0.19101,-0.19434 0.25323,-0.60974 0.0623,-0.41538 -0.0634,-0.65718 -0.12306,-0.24142 -0.42168,-0.28613 -0.29855,-0.0448 -0.49257,0.15183 -0.19103,0.19436 -0.25285,0.60715 -0.0617,0.41279 0.0634,0.65718 0.1282,0.24218 0.42685,0.28691 z m -0.336,-1.97478 q 0.23022,-0.22566 0.48177,-0.31009 0.25194,-0.0871 0.55568,-0.0415 0.53742,0.0804 0.81855,0.56056 0.28152,0.47748 0.18079,1.1499 -0.10078,0.6724 -0.51014,1.04907 -0.40905,0.37406 -0.94647,0.29358 -0.30376,-0.0455 -0.51952,-0.19991 -0.2154,-0.15697 -0.36939,-0.4402 l -0.0631,0.42058 -0.92944,-0.13926 0.60498,-4.03967 0.92944,0.13925 z m 3.60784,0.37161 0.81554,0.46704 -0.30577,2.12397 1.57465,-1.39734 0.81554,0.46703 -2.67235,2.17843 q -0.40569,0.33337 -0.71864,0.37803 -0.31198,0.0482 -0.66508,-0.15393 l -0.47154,-0.27003 0.30657,-0.53533 0.25513,0.14611 q 0.2073,0.11868 0.33853,0.10611 0.13354,-0.0114 0.28375,-0.15202 l 0.0632,-0.0575 z m 6.60042,7.49974 q 0.32106,0.0575 0.54699,0.22688 0.22934,0.17068 0.34429,0.4413 0.19806,0.46634 0.0133,0.8325 -0.18383,0.36615 -0.73238,0.59911 l -1.64788,0.69987 -0.36944,-0.86985 1.4111,-0.5993 q 0.0324,-0.0114 0.0663,-0.0253 0.0349,-0.0114 0.0977,-0.0387 0.28753,-0.12211 0.37968,-0.26108 0.0945,-0.14001 0.0152,-0.32843 -0.10459,-0.24647 -0.36511,-0.29558 -0.2594,-0.0467 -0.64564,0.11163 l -1.32895,0.56441 -0.36943,-0.86985 1.41109,-0.59931 q 0.44943,-0.19086 0.54466,-0.32257 0.0975,-0.13277 0.0133,-0.33087 -0.10573,-0.24887 -0.36855,-0.29695 -0.26043,-0.0491 -0.63979,0.11201 l -1.33135,0.56546 -0.36943,-0.86985 2.70619,-1.14937 0.36945,0.86985 -0.39627,0.1684 q 0.29727,0.0619 0.50047,0.2181 0.20423,0.15849 0.30994,0.40742 0.11906,0.28028 0.0751,0.5528 -0.044,0.27251 -0.24081,0.48729 z m -0.26424,6.79011 -0.26719,-0.0171 0.14382,-2.19254 q -0.3323,0.0133 -0.51074,0.20589 -0.1785,0.19349 -0.2025,0.56022 -0.0194,0.29601 0.0467,0.61079 0.0686,0.31756 0.22525,0.65669 l -0.723,-0.0474 q -0.10382,-0.34091 -0.14497,-0.67773 -0.0436,-0.33697 -0.0217,-0.66964 0.0522,-0.79634 0.48472,-1.21255 0.4349,-0.41344 1.16573,-0.36547 0.71776,0.0471 1.10064,0.50632 0.38273,0.46182 0.33287,1.22147 -0.0453,0.69156 -0.48904,1.0781 -0.44384,0.38917 -1.14063,0.34343 z m 0.37497,-0.94351 q 0.2672,0.0171 0.43992,-0.12897 0.17526,-0.14364 0.19168,-0.39519 0.0171,-0.27243 -0.12554,-0.45285 -0.14078,-0.18021 -0.42614,-0.24105 z"
       id="text92"
       aria-label="made by me" />
  </g>
</svg>
